<?xml version="1.0" encoding="UTF-8"?>
<!-- Uploaded to: SVG Find, www.svgfind.com, Generator: SVG Find Mixer Tools -->
<svg width="800px" height="800px" version="1.1" viewBox="144 144 512 512" xmlns="http://www.w3.org/2000/svg">
 <defs>
  <clipPath id="a">
   <path d="m226 148.09h348v503.81h-348z"/>
  </clipPath>
 </defs>
 <g clip-path="url(#a)">
  <path d="m557.05 335.97c14.953-3.043 17.691-7.1367 15.918-21.574-1.8516-14.922-4.3906-29.809-7.5547-44.496-2.6992-12.449-5.1445-14.031-18.152-13.324-10.98 0.60547-21.832 2.6172-32.789 3.3281-12.078 0.78125-12.566 0.46094-14.02-11.848-2.9961-25.371-9.6836-49.984-15.066-74.848-4.9258-22.57-9.0781-25.27-32.133-25.117-8.0234 0.98828-16.035 2.3008-24.102 2.8984-34.156 2.5234-31.953 11.855-27.359 39.469 3.7109 22.258 7.4219 44.52 11.133 66.781 2.1094 12.797 1.6484 13.645-11.246 15.559-7.4336 1.0977-15.234 0.33984-22.441 2.1289-10.145 2.5195-13.844-1.9062-15.297-10.812h-0.003906c-0.66016-2.8164-1.4844-5.5898-2.4609-8.3125-7.3867-26.16-14.59-52.379-22.199-78.496-4.9805-17.062-10.305-20.535-27.887-17.91l0.003906-0.003907c-9.1211 1.5273-18.137 3.6172-26.996 6.2656-21.023 5.8789-23.609 9.332-21.074 30.492 3.0703 26.441 7.5234 52.707 13.344 78.684 2.5352 11.117 2.0586 11.527-9.2109 12.824-9.7695 1.0977-19.535 2.2344-29.285 3.5078-7.2617 0.94922-12.625 4.9883-11.406 12.527 2.9219 18.41 1.7344 37.004 3.5352 55.441 1.1914 12.234 3.7539 15.168 16.602 14.523 10.055-0.5 13.066 3.1875 14.086 12.398 2.6836 24.152 6.3945 48.191 9.168 72.332l-0.003906 0.003906c0.41797 6.9805 4.5117 13.215 10.754 16.367 19.613 11.164 38.914 22.879 58.391 34.293 3.8711 2.5234 8.2305 4.207 12.793 4.9414 15.547 1.9219 15.547 2.1172 18.824 17.703 0.71484 3.3906 1.0469 6.8711 1.8125 10.258 2.2891 10.16 6.3164 19.027 18.355 20.062 6.2148 0.55078 7.2305 4.4258 7.832 9.3711 2.5859 21.242 5.6367 42.445 7.8438 63.727 1.5352 14.902 4.3906 18.113 19.508 16.371 12.625-1.4531 25.25-3.4141 37.68-5.957 15.371-3.1445 17.496-5.7422 15.43-21.129-2.3828-17.762-5.9727-35.363-9.0508-53.027-1.2969-7.4375-3.1836-14.398 5.9883-19.328 7.4102-3.9844 7.7734-12.367 7.5898-20.078-0.23438-10.43-0.46094-20.859-1.0391-31.258h0.007813c-0.36719-2.2734 0.21094-4.6016 1.5977-6.4375 1.3906-1.8398 3.4688-3.0312 5.7578-3.3008 5.9688-1.7578 12.344-1.7461 17.77-6.1914 14.305-11.734 29.051-22.949 43.883-34.035h-0.003906c2.9766-1.7852 5.293-4.4922 6.5977-7.7109 1.3086-3.2148 1.5352-6.7695 0.64844-10.129-5.8242-27.812-7.2891-56.223-11.176-84.293-1.125-8.125 0.75-10.953 9.1055-12.641zm-126.61-163.41c36.676-2.9688 29.312-10.176 38.02 25.547 4.5195 18.543 7.9648 37.285 10.797 56.156 0.97656 6.5117-0.71875 9.668-7.625 10.215-6.9062 0.55078-13.723 1.9609-20.547 2.9961-15.75 0.44922-16.137 0.51562-18.664-14.996-3.7148-22.82-6.6328-45.758-10.258-68.617-1.125-7.1094 0.33594-10.656 8.2773-11.301zm-135.13 12.305c21.957-5.7422 21.727-6.1055 27.824 16.062 6.1367 22.309 12.625 44.512 18.762 66.828 2.9844 10.906 2.4531 11.469-8.9219 12.703h0.003907c-5.7891 0.14844-11.562 0.64062-17.293 1.4688-18.516 4.3203-16.66 0.67969-19.434-12.734-4.8086-23.207-8.0156-46.746-11.891-70.148-1.457-8.8203 2.793-12.031 10.949-14.18zm153 443.46c-24.512 2.5195-18.488 7.0977-23.152-16.617-2.1172-10.766-3.4922-21.676-4.9727-32.559-2.3047-16.941-2.2227-16.957 15.039-17.312 12.844-0.26953 13.004-0.30078 15.371 12.566 2.5195 13.645 4.5273 27.387 7.0742 41.027 1.4844 7.9102-1.0742 12.047-9.3594 12.895zm-14.039-87.434c-9.7773 0.91016-19.695 0.23047-29.488 1.0273-8.7227 0.70312-12.625-2.8672-13.559-11.34-0.67578-6.207-2.3398-12.312-3.7695-19.52 22.578-6.0391 44.836-8.9141 66.844-13.004h-0.003906c1.375-0.45312 2.8789-0.25781 4.0938 0.52344 1.2148 0.78125 2.0156 2.0664 2.1758 3.5039 0.14844 0.55078 0.13672 1.1523 0.26172 1.7188 6.3477 27.984 1.8789 34.457-26.555 37.09zm92.391-96.711c-16.934 15.812-38.168 26.258-61.027 30.012-32.559 4.6875-64.703 12.27-96.941 18.992-7.2773 1.8398-14.992 0.60547-21.336-3.4062-14.805-9.043-29.887-17.645-45.238-25.801-3.3867-1.5508-6.3008-3.9727-8.4453-7.0156-2.1445-3.0469-3.4453-6.6055-3.7656-10.316-2.8828-22.379-6-44.742-9.7109-66.969-1.1406-6.8789 1.0977-9.793 7.2578-10.867 2.8477-0.49219 5.7266-0.87109 8.6016-1.0977 14.047-1.2148 14.395-1.2773 17.773 12.031 4.7031 18.492 8.7812 37.145 13.234 55.707 2.8984 12.078 7.7305 15.918 19.598 13.84 34.199-6.0703 69.008-6.9336 103.25-12.391 13.691-2.1953 27.316-4.7734 40.875-7.7305 11.848-2.5859 14.414-6.0781 12.164-18.504-3.293-18.191-7.7852-36.156-11.422-54.289-2.2852-11.367-1.75-11.781 9.1875-13.141 26.254-3.2656 26.309-3.293 29.094 23.336 1.9766 18.992 3.7773 38.008 5.7695 58.125 2.7148 8.207-2.2539 13.773-8.9219 19.484zm-201.26-79.551 87.148-10.906c17.215-2.1523 34.449-4.1602 51.645-6.4766 7.2852-0.98437 11.84-0.09375 12.988 8.9141 2.043 16.051 5.3203 31.953 8.2734 47.883 1.4336 7.7344-0.89844 10.863-9.2344 12.75-31.152 7.0664-62.836 9.5977-94.379 13.441-10.332 1.25-20.641 2.6562-30.965 3.9688-5.0352 0.63672-8.9766 0-10.387-6.1641-4.7578-20.734-9.8359-41.402-15.09-63.41zm216.64-48.344c-36.188 3.957-72.285 8.7344-108.42 13.176-44.738 5.4883-89.48 10.938-134.23 16.34-12.078 1.4609-24.086 3.1016-36.168 4.2227-12.254 1.1367-12.285 0.89844-13.328-11.402-0.28906-3.457-0.49219-6.9258-0.73438-10.391-1.2578-15.75-1.332-16.359 14.273-18.27 35.566-4.3477 71.215-8.0078 106.82-12.004 48.246-5.418 96.488-10.863 144.72-16.336 2.293-0.25781 4.5938-0.60937 6.8984-0.73047 31.117-1.5977 23.773-6.1523 29.152 23.148 1.4531 7.8594-0.17969 11.281-9.0039 12.246zm-172.3 82.418c-3.9297 0-6.2422 0.13672-8.5312-0.03125l0.003906-0.003906c-2.3828-0.13281-4.418-1.7539-5.0781-4.043-1.0977-3.293 1.0273-5.4883 3.3281-7.2461h-0.003906c3.0156-1.7031 6.4219-2.5977 9.8828-2.5938 24.449-3.9102 48.887-7.8633 73.316-11.867 1.668-0.41406 3.3828-0.625 5.1016-0.62891 3.6016-0.19531 6.7891 2.3047 7.4609 5.8438 0.37109 1.7305 0.015625 3.5391-0.98047 5-0.99609 1.4648-2.5469 2.457-4.293 2.7461-6.1406 1.4961-12.352 2.6719-18.609 3.5234-21.047 3.2461-42.121 6.3672-61.598 9.3008z"/>
 </g>
</svg>