<?xml version="1.0" encoding="UTF-8"?>
<svg id="Ebene_1" xmlns="http://www.w3.org/2000/svg" version="1.1" viewBox="420 400 980 320" fill="currentColor">
  <!-- Generator: Adobe Illustrator 29.0.0, SVG Export Plug-In . SVG Version: 2.1.0 Build 186)  -->
  <path d="M1359,504.5c-3.3,3.7-1.5,8.6-2,13-2.1,18.1-5.9,37.2-20.5,49.5-6.4,5.4-21.9,13.1-23.5-.4-1.1-9,.3-22.7,1-32,1-11.8,3.1-23.8,5-35.5h-18.5c-1.6,0-9.2,2.2-10.8,3.2-2.7,1.6-4.1,4.1-5,7l-5.4,55.6c-15.4,15.8-21.5,5.2-17.1-13.1l17.9-129.6h-19.5c-.4,0-6.5,2.1-7.5,2.5-5.7,2.5-7.6,6.8-9.6,12.4l-7.4,66.1c-4.4-2.1-8.1-4.1-13-5.5-40.5-11.7-77,24-76,64,0,3.6,3.6,12.9-5,9-9.5-4.3-2.1-32.6.5-40.5,2-6.4,5.6-12.1,7.4-18.6l9.5-89.5c-14.8-2.6-34.8,0-35.3,18.7l-6.1,61.4c-38.1-21-81.4,5.8-85.9,47.6-.7,6.6,2.4,16.3-6.1,18.9-11.1,3.5-10.6-4.7-9.9-12.9.7-8.6,3.5-18.6,4.7-27.3,1.4-10.3,2.5-20.6,3.9-30.9-.5-1.5-1.9-1.4-3.2-1.5-7.4-.7-29.3,1.1-31.5,9.6-3.4,13.1-1.4,26.7-7.6,40.4-4.5,10-23.8,33.6-33.5,17.5l9-66.5h-20.5c-3.8,0-12.7,3.5-14.1,7.9-.3,27.8-29.5,101,25.8,88.8,13.9-3.1,24.9-13.1,34.7-22.7-1.1,18.4,6.5,24.8,24.5,23,11.1-1.1,19.8-8.2,28-14.9,6.2,9.3,12.3,15.7,24.1,16.8,19.6,1.8,34.2-11,47.9-22.9-2.3,30.9,29.7,23.8,46.9,12.2,18.8,20.1,47.8,10.8,65.7-5.6,3.1-2.9,5-7.6,9-8.5v15.5c0,5,8.1,9,12.5,9.5,15.1,1.7,29.8-5.4,40-16,15.1,25.2,52.5,14.3,69-4l7.5-10c-1.2,10.2-1.9,21.2-4.3,31.2-2.4,9.9-3.7,9.5-3.6,20.3,0,11.7-1.4,22.7-3.9,34.1.6,4.4,11.7-4.1,13.4-5.5,19.7-17.3,26.2-54.6,28.5-79.5l3-67.5c-7.4,0-28-.2-33,5.5ZM1112.8,530.2c-1.4,8.8-14.3,27-21.3,32.8-14.6,12-29.6,8.8-27.4-12.4,1.3-12.3,12.8-29.6,25.6-31.3,6.3-.9,24.4,2.6,23.1,11ZM1230.6,531c-1.3,6.9-13.3,25.4-18.6,30.5-6.3,6.1-20,13.2-27.7,6.2-4.9-4.5-4.5-15-3-20.9,4.6-17.8,24-34.1,42.6-24.2,3.1,1.7,7.5,4.4,6.7,8.4Z"/>
  <path d="M616.5,489c1.9,1.3,1.6,3.4,1.5,5.5-1,19.3-8.3,40.8-9.1,60s-.5,8.4,3,11c18.7,2.5,22.9-21.1,24.9-35.1s1.8-30.7,5.1-34.9c5-6.2,23.4-6.8,31-6.5l-2.5,18c9.3-9.3,17.1-19.8,32-17s2,20.2.6,25.3c-20,3.6-30.7,13.3-36.6,32.7s-2.4,20.8,15.7,14.7,15.6-5.7,16.7-11.3c4.2-22.7,5.9-37,25.7-52.3,24.2-18.6,71.9-11.6,58.1,28.1-6.7,19.3-27.8,28.1-46.7,30.7-2.4-5.5-4-10.7-2.9-16.8,11.7-4.1,29-13.6,23.9-28.5-15.7-8.2-26.4,13.5-28.8,26.1-8.1,42.5,26,36,50.6,19.6,29.4-19.5,66.2-73.2,68.1-108.9s-5.6-18.3-13.4-4.4c-9.5,16.8-8.3,31.5-10.7,49.3s-18.4,29.3-24.9,38.6c-2.8-32.4-2.8-83.2,23.5-107s30.1-15.5,41-3c16.9,19.2,1.6,58.3-10.5,77,6.1-2.5,10.6-6.4,17.5-7,49.5-4.4,49.6,53.1,25.5,81.5s-69.3,35.6-89.7,3l21.4-18.4,1.3.3c15.2,25.3,46.1,5.4,48.9-18s-1.8-26.9-18.7-22.7c-12.3,3-28.4,26.2-37.6,35.4-12.3,12.1-33.1,27.7-49.3,33.7s-58.8,11.2-69.8-15.8c-20.6,9.6-42.4,19.4-65.5,19.6l-.9-14.1-2-.5c-5.6,8.4-20.2,16.1-30.5,17-33.9,2.8-24-35.3-21-56l-10.1,15.9c-12.4,18.4-38.8,49.4-63.8,37-15.7-7.8-13.5-28.1-17.7-41.3s-.3-2.4-1.9-2.6c-5.4,18.2-20.2,49.8-43.4,46.9-19.6-2.5-22.6-34.9-23.6-50.4s.9-22.7-1-24.1c-21.1,3.4-41.4,12.4-63,11.6l-1-18c7.7.3,15.5-.9,23-2.5,16.8-3.5,42.9-16.9,58.5-15.5s8.6,1.6,11.3,5.6c6.7,10,3.3,36.2,4.2,48.8s1.5,16.5,4.5,16.5c13.3-14.3,14.6-36.5,20.8-54.2s5-12.7,12.2-14.8c23.6-7.2,19.2,24.7,20.6,38.6s5.5,41.8,28.9,26.9c17.6-11.2,36.2-36.3,43.1-55.9s-.2-10.5,7.7-14.3,9.5-3.3,10.7-3.3h15Z"/>
  <path d="M1118.9,638.1l1.1,9.4c6,2,3.9-8.9,7-13s6.9-4.2,10-4.5l-2,14,3.9-1.1c-.8-10.9,2.4-14.2,12.1-17.9l-.5,16c5.8-2.5,1.9-12.3,5.4-16.6s8.1-3.4,10.6-4.4l-2.5,18,4.9-1.6,2.4-17.1,10.3-3.2-1.5,19.5c0,.9,2.1.7,2.5.5,3-1.4,3-17,5.5-20.5,27.8-7.8,57.2-11.4,86-12.5v7s59.5-5,59.5-5c3.9.8,11.1,14.2,11.5,18.5.7,6.8-4.9,42.5-8.9,47.1l-1.8,1.2-53.6,2.4c-6,1.1-2.4,7.9-5.3,11.8-19.8-.9-40.3,1-59.9,0s-15.6-.9-19.5-2.5c-8.8-3.7-11.4-22-13-30.5l-3.8,1.1c-.8,9.6,2.1,19.7,7.8,27.4-8.8,2.1-12.7-2.8-15.8-10.2-2.2-5.4-2.3-11.2-4.7-16.3l-2.5,1.6c-.3,5.3.2,9.8,2.2,14.7s6.9,8.9,3.4,8.7c-6.7-.4-11.9-4.4-14.5-10.5s-.4-13.4-6.9-10.5v1.4c.9,5.5,2,11.7,5.9,16.1-12,2.6-15.1-7.6-16-17.5l-4.1,1.6,3.5,14.5c-8.9-1.7-12.8-3.4-14.1-13.1-40.6,1.8-81.4,1.9-121.9-1.9-53.4-5-111.1-16.1-153.5-50.5,0-1.5,26.2-8.9,29.4-8.5,73.6,39.2,159.8,42.7,241.5,37.1ZM1276,650h-18l1.6,7.1,58.9-3.1c3.8.7,5.5,10,10,11,.5-7-5.9-13.2-3.5-20l-30-1v5h18v1h-32l7.1-30.9h12.9c0,0-2,4.9-2,4.9h24.5c.7,0,2.9-1.5,4.4-1.1v-4.9c-1-.4-2.1,1-2.4,1h-20.5l9.5-2h13.9s1.6-5,1.6-5l-62,1.4-2,7.6,14-.6,2,1.2-6,28.4ZM1257,613l-16,1-6,36,14.5-1,7.5-36ZM1327,625h-24.5c-.4,0-3.9.7-4,.9l-.5,4.1h29v-5ZM1296,643h29v-5h-18c-.7-4.1,5.3-1.1,7.5-1,3.3.1,6.6.1,9.8-.1l1.6-4.9-28.1-.6-1.9,11.6ZM1252.9,651.1c-.9-.6-17.8.7-20.2,1-8.2,1.1-22.9,3.9-30.6,6.4s-3.6.6-4,2.5l49.3-3c1.2.3,9,19,11.6,21.4s1.7.7,3,.7l-9.1-28.9Z"/>
  <path d="M526,560c4.9-16.6,8.5-35.2,10-52.5s-.9-13.7.5-16.5c2.3-4.5,29.8-6.3,31.5,2.5s-2.3,22-4.9,29c-6.1,16.1-21,31.2-37,37.5Z"/>
  <path d="M600.7,435.2c9.2-1.9,20.5.2,23.3,10.2,5.1,18-6.5,30.9-25.1,26.1s-14.9-32.9,1.8-36.3Z"/>
</svg>